<?xml version="1.0" standalone="no"?>
<!DOCTYPE svg PUBLIC "-//W3C//DTD SVG 20010904//EN"
 "http://www.w3.org/TR/2001/REC-SVG-20010904/DTD/svg10.dtd">
<svg version="1.0" xmlns="http://www.w3.org/2000/svg"
 width="429.000000pt" height="429.000000pt" viewBox="0 0 429.000000 429.000000"
 preserveAspectRatio="xMidYMid meet">
<metadata>
Created by potrace 1.14, written by Peter Selinger 2001-2017
</metadata>
<g transform="translate(0.000000,429.000000) scale(0.100000,-0.100000)"
fill="#000000" stroke="none">
<path d="M560 2810 l0 -330 165 0 165 0 0 330 0 330 -165 0 -165 0 0 -330z"/>
<path d="M1650 2105 l0 -945 615 0 615 0 0 150 0 150 -445 0 -445 0 0 255 0
255 410 0 410 0 0 145 0 145 -410 0 -410 0 0 250 0 250 445 0 445 0 0 145 0
145 -615 0 -615 0 0 -945z"/>
<path d="M3360 2835 l0 -124 -142 -3 -143 -3 -3 -97 -3 -98 146 0 145 0 0
-130 0 -130 100 0 100 0 0 130 0 130 145 0 146 0 -3 98 -3 97 -142 3 -143 3 0
124 0 125 -100 0 -100 0 0 -125z"/>
</g>
</svg>
